<svg width="163" height="124" viewBox="0 0 163 124" fill="none" xmlns="http://www.w3.org/2000/svg">
<g clip-path="url(#clip0_127_16)">
<path d="M2.45125 27.1685C8.42283 20.0346 141.95 -3.91617 155.303 8.40057C165.138 17.4717 161.676 22.8719 159.169 25.0881C158.172 25.9698 156.769 26.1176 155.461 25.8667C100.809 15.3772 71.1859 29.3681 15.2431 34.2793C15.0699 34.2945 14.9002 34.3025 14.7264 34.3C12.5284 34.2679 -3.10567 33.807 2.45125 27.1685Z" fill="#F4CE14"/>
<path d="M2.45125 66.1684C8.42283 59.0345 141.95 35.0838 155.303 47.4005C165.138 56.4716 161.676 61.8719 159.169 64.0881C158.172 64.9697 156.769 65.1176 155.461 64.8666C100.809 54.3772 71.1859 68.3681 15.2431 73.2793C15.0699 73.2945 14.9002 73.3025 14.7264 73.2999C12.5284 73.2679 -3.10567 72.8069 2.45125 66.1684Z" fill="#F4CE14"/>
<path d="M2.45125 105.168C8.42283 98.0345 141.95 74.0838 155.303 86.4005C165.138 95.4716 161.676 100.872 159.169 103.088C158.172 103.97 156.769 104.118 155.461 103.867C100.809 93.3772 71.1859 107.368 15.2431 112.279C15.0699 112.294 14.9002 112.302 14.7264 112.3C12.5284 112.268 -3.10567 111.807 2.45125 105.168Z" fill="#F4CE14"/>
</g>
<defs>
<clipPath id="clip0_127_16">
<rect width="162.682" height="123.218" fill="white"/>
</clipPath>
</defs>
</svg>
